# xmcd CD database file
#
# Track frame offsets:
#	150
#	16431
#	37335
#	51035
#	69987
#	86077
#	101853
#	124373
#	137101
#	156578
#
# Disc length: 2301 seconds
#
# Revision: 0
# Processed by: cddbd v1.5.2PL0 Copyright (c) Steve Scherf et al.
# Submitted via: CDex 1.70beta2
#
DISCID=9508fb0a
DTITLE=Jace Everett - old new borrowed blues
DYEAR=2007
DGENRE=Blues
TTITLE0=Your Man
TTITLE1=Angel Loves the Devil Outta Me
TTITLE2=Bad Things
TTITLE3=Between a Father and a Son
TTITLE4=Doin Nothing With You
TTITLE5=I Gotta Have It
TTITLE6=Greatest Story (Never Told)
TTITLE7=A Little Less Lonely
TTITLE8=Not So Far Away
TTITLE9=Turn It On
EXTD=YEAR: 2007
EXTT0=
EXTT1=
EXTT2=
EXTT3=
EXTT4=
EXTT5=
EXTT6=
EXTT7=
EXTT8=
EXTT9=
PLAYORDER=
